<svg xmlns="http://www.w3.org/2000/svg" viewBox="0 0 32 32" fill="none">
  <defs>
    <linearGradient id="bg" x1="4" y1="0" x2="28" y2="32" gradientUnits="userSpaceOnUse">
      <stop stop-color="#2e1065"/>
      <stop offset="0.5" stop-color="#1e1b4b"/>
      <stop offset="1" stop-color="#0f172a"/>
    </linearGradient>
  </defs>
  <rect width="32" height="32" rx="7" fill="url(#bg)"/>
  <path d="M16 7c-4.5 0-7 3-7 6.5 0 2 .8 3.8 2.2 5-1.5 1.5-2.2 3.5-2.2 5.5 0 4 3.5 6.5 7 6.5" stroke="#c4b5fd" stroke-width="1.5" stroke-linecap="round"/>
  <path d="M16 7c4.5 0 7 3 7 6.5 0 2-.8 3.8-2.2 5 1.5 1.5 2.2 3.5 2.2 5.5 0 4-3.5 6.5-7 6.5" stroke="#a78bfa" stroke-width="1.5" stroke-linecap="round"/>
  <circle cx="12" cy="14" r="1.8" fill="#fff"/>
  <circle cx="20" cy="14" r="1.8" fill="#fff"/>
  <circle cx="16" cy="19" r="1.8" fill="#fff"/>
  <circle cx="13" cy="22" r="1.3" fill="#e9d5ff"/>
  <circle cx="19" cy="22" r="1.3" fill="#e9d5ff"/>
  <line x1="12" y1="14" x2="16" y2="19" stroke="#ddd6fe" stroke-width="1"/>
  <line x1="20" y1="14" x2="16" y2="19" stroke="#ddd6fe" stroke-width="1"/>
  <line x1="16" y1="19" x2="13" y2="22" stroke="#ddd6fe" stroke-width="0.8"/>
  <line x1="16" y1="19" x2="19" y2="22" stroke="#ddd6fe" stroke-width="0.8"/>
</svg>
